<svg version="1.1" xmlns="http://www.w3.org/2000/svg"
    viewBox="0 0 984.1772805188775 1343.276040158601" width="984.1772805188775"
    height="1343.276040158601">
    <!-- svg-source:excalidraw -->

    <defs>
        <style class="style-fonts">
            @font-face {
            font-family: "Virgil";
            src: url("https://excalidraw.com/Virgil.woff2");
            }
            @font-face {
            font-family: "Cascadia";
            src: url("https://excalidraw.com/Cascadia.woff2");
            }
            @font-face {
            font-family: "Assistant";
            src: url("https://excalidraw.com/Assistant-Regular.woff2");
            }
        </style>

    </defs>
    <rect x="0" y="0" width="984.1772805188775" height="1343.276040158601" fill="#ffffff00"></rect>
    <g stroke-linecap="round">
        <g
            transform="translate(254.6657424619334 40.68283073895509) rotate(0 -43.33936892435668 12.668453641314954)">
            <path
                d="M0 0 C-0.02 -5.81, -0.03 -11.63, -0.04 -14.99 M0 0 C-0.01 -4.94, -0.03 -9.89, -0.04 -14.99 M-0.04 -14.99 C-16.52 -20.87, -33 -26.74, -44.03 -30.68 M-0.04 -14.99 C-11.97 -19.24, -23.89 -23.5, -44.03 -30.68 M-44.03 -30.68 C-54.6 -26.82, -65.17 -22.95, -86.49 -15.15 M-44.03 -30.68 C-52.65 -27.53, -61.27 -24.38, -86.49 -15.15 M-86.49 -15.15 C-86.56 -1.38, -86.64 12.39, -86.76 36.61 M-86.49 -15.15 C-86.58 2.5, -86.68 20.15, -86.76 36.61 M-86.76 36.61 C-71.86 43.31, -56.96 50.01, -43.59 56.02 M-86.76 36.61 C-72.15 43.18, -57.55 49.75, -43.59 56.02 M-43.59 56.02 C-33.06 51.38, -22.52 46.74, 0.08 36.77 M-43.59 56.02 C-27.69 49.02, -11.8 42.01, 0.08 36.77 M0.08 36.77 C0.07 31.91, 0.05 27.04, 0.01 14.34 M0.08 36.77 C0.06 30.48, 0.04 24.19, 0.01 14.34"
                stroke="#000" stroke-width="4" fill="none"></path>
        </g>
    </g>
    <mask></mask>
    <g stroke-linecap="round">
        <g
            transform="translate(184.07718985823885 33.2800107325852) rotate(0 13.689775620250657 20.425786362288363)">
            <path
                d="M0 0 C5.8 2.09, 11.59 4.19, 27.38 9.89 M0 0 C6.99 2.53, 13.98 5.05, 27.38 9.89 M27.38 9.89 C27.32 19.18, 27.27 28.46, 27.19 40.85 M27.38 9.89 C27.33 17.45, 27.29 25.01, 27.19 40.85"
                stroke="#3d71b7" stroke-width="4" fill="none"></path>
        </g>
    </g>
    <mask></mask>
    <g transform="translate(279.2681212208845 30.851284380270044) rotate(0 268.1226095976144 22.5)">
        <text x="0" y="31.536" font-family="Virgil, Segoe UI Emoji" font-size="36px" fill="#1971c2"
            text-anchor="start" style="white-space: pre;" direction="ltr"
            dominant-baseline="alphabetic">itsTarikBTW/zpl-library-demo</text>
    </g>
    <g transform="translate(142.83094234183227 173.49075971600996) rotate(0 234.179931640625 22.5)">
        <text x="0" y="31.536" font-family="Virgil, Segoe UI Emoji" font-size="36px" fill="#1971c2"
            text-anchor="start" style="white-space: pre;" direction="ltr"
            dominant-baseline="alphabetic">company set a ZPL design</text>
    </g>
    <g transform="translate(142.83094234183227 285.2623762032081) rotate(0 393.89385986328125 22.5)">
        <text x="0" y="31.536" font-family="Virgil, Segoe UI Emoji" font-size="36px" fill="#1971c2"
            text-anchor="start" style="white-space: pre;" direction="ltr"
            dominant-baseline="alphabetic">company create a XML schema for the label</text>
    </g>
    <g transform="translate(142.83094234183227 397.0339926904062) rotate(0 396.88189697265625 22.5)">
        <text x="0" y="31.536" font-family="Virgil, Segoe UI Emoji" font-size="36px" fill="#1971c2"
            text-anchor="start" style="white-space: pre;" direction="ltr"
            dominant-baseline="alphabetic">company create a XML file for each product</text>
    </g>
    <g stroke-linecap="round">
        <g
            transform="translate(51.810718151369656 172.42894912015254) rotate(0 30.59520855376286 30.617149113338428)"
            fill-rule="evenodd">
            <path
                d="M0 0 L25.99 8.86 L47.49 -7.73 L47.21 19.75 L68.64 35.46 L43 43.98 L34.99 68.96 L19.61 47.08 L-7.45 47.35 L8.63 26.01 L0 0"
                stroke="none" stroke-width="0" fill="#ff00" fill-rule="evenodd"></path>
            <path
                d="M0 0 C8.16 2.78, 16.32 5.56, 25.99 8.86 M0 0 C7.57 2.58, 15.13 5.16, 25.99 8.86 M25.99 8.86 C33.31 3.21, 40.64 -2.45, 47.49 -7.73 M25.99 8.86 C32.99 3.46, 40 -1.95, 47.49 -7.73 M47.49 -7.73 C47.43 -1.63, 47.37 4.47, 47.21 19.75 M47.49 -7.73 C47.43 -2.03, 47.37 3.67, 47.21 19.75 M47.21 19.75 C53.8 24.58, 60.39 29.42, 68.64 35.46 M47.21 19.75 C53.38 24.28, 59.55 28.8, 68.64 35.46 M68.64 35.46 C60.71 38.1, 52.79 40.73, 43 43.98 M68.64 35.46 C59.31 38.56, 49.98 41.66, 43 43.98 M43 43.98 C41.28 49.33, 39.57 54.67, 34.99 68.96 M43 43.98 C40.51 51.73, 38.03 59.48, 34.99 68.96 M34.99 68.96 C30.35 62.36, 25.71 55.77, 19.61 47.08 M34.99 68.96 C31.69 64.27, 28.4 59.59, 19.61 47.08 M19.61 47.08 C12.61 47.15, 5.61 47.22, -7.45 47.35 M19.61 47.08 C13.9 47.14, 8.2 47.19, -7.45 47.35 M-7.45 47.35 C-1.09 38.92, 5.27 30.48, 8.63 26.01 M-7.45 47.35 C-3.97 42.74, -0.49 38.12, 8.63 26.01 M8.63 26.01 C5.52 16.64, 2.41 7.26, 0 0 M8.63 26.01 C5.5 16.57, 2.37 7.13, 0 0 M0 0 C0 0, 0 0, 0 0 M0 0 C0 0, 0 0, 0 0"
                stroke="#000" stroke-width="4" fill="none"></path>
        </g>
    </g>
    <mask></mask>
    <g stroke-linecap="round">
        <g
            transform="translate(106.38063805987258 227.26422067590147) rotate(0 13.768111506245987 13.798050411342274)">
            <path
                d="M0 0 C9.58 9.6, 19.16 19.2, 27.54 27.6 M0 0 C7.57 7.59, 15.14 15.18, 27.54 27.6"
                stroke="#000" stroke-width="4" fill="none"></path>
        </g>
    </g>
    <mask></mask>
    <g stroke-linecap="round">
        <g
            transform="translate(87.98956648547392 190.36463253987313) rotate(0 -0.012765986772137694 6.5274654624954564)">
            <path
                d="M0 0 C-0.01 3.8, -0.01 7.61, -0.03 13.05 M0 0 C-0.01 4.41, -0.02 8.82, -0.03 13.05"
                stroke="#3d71b7" stroke-width="4" fill="none"></path>
        </g>
    </g>
    <mask></mask>
    <g stroke-linecap="round">
        <g
            transform="translate(126.38461351567094 396.76249903728444) rotate(0 -37.244477185522555 25.786430609961826)">
            <path
                d="M0 0 C0.02 -4.19, 0.03 -8.38, 0.07 -16.98 M0 0 C0.02 -5, 0.04 -10, 0.07 -16.98 M0.07 -16.98 C-15.93 -17.1, -31.92 -17.22, -74.46 -17.53 M0.07 -16.98 C-16.5 -17.1, -33.06 -17.22, -74.46 -17.53 M-74.46 -17.53 C-74.56 1.74, -74.66 21.02, -74.91 68.7 M-74.46 -17.53 C-74.64 16.37, -74.82 50.27, -74.91 68.7 M-74.91 68.7 C-58.71 68.78, -42.5 68.87, 0.36 69.1 M-74.91 68.7 C-49 68.83, -23.08 68.97, 0.36 69.1 M0.36 69.1 C0.38 53.8, 0.4 38.5, 0.43 17.19 M0.36 69.1 C0.38 55.07, 0.39 41.04, 0.43 17.19"
                stroke="#000" stroke-width="4" fill="none"></path>
        </g>
    </g>
    <mask></mask>
    <g stroke-linecap="round">
        <g
            transform="translate(71.44159010805379 405.67881100256113) rotate(0 17.598793255749115 -0.0657880722325217)">
            <path
                d="M0 0 C10.85 -0.04, 21.71 -0.08, 35.2 -0.13 M0 0 C9.21 -0.03, 18.42 -0.07, 35.2 -0.13"
                stroke="#3d71b7" stroke-width="4" fill="none"></path>
        </g>
    </g>
    <mask></mask>
    <g stroke-linecap="round">
        <g
            transform="translate(71.44364682547166 423.06554728253036) rotate(0 17.598793255749115 -0.0657880722325217)">
            <path
                d="M0 0 C9.07 -0.03, 18.15 -0.07, 35.2 -0.13 M0 0 C10.96 -0.04, 21.93 -0.08, 35.2 -0.13"
                stroke="#3d71b7" stroke-width="4" fill="none"></path>
        </g>
    </g>
    <mask></mask>
    <g stroke-linecap="round">
        <g
            transform="translate(71.91833182887785 440.0131475082169) rotate(0 8.665152127803594 0.11381847314976312)">
            <path d="M0 0 C3.78 0.05, 7.56 0.1, 17.33 0.23 M0 0 C5 0.07, 10 0.13, 17.33 0.23"
                stroke="#3d71b7" stroke-width="4" fill="none"></path>
        </g>
    </g>
    <mask></mask>
    <g stroke-linecap="round">
        <g
            transform="translate(126.72982660072012 308.18815727350284) rotate(0 -37.58969027057174 8.859596148864966)">
            <path
                d="M0 0 C0.06 -9.91, 0.11 -19.81, 0.2 -34.03 M0 0 C0.07 -11.6, 0.13 -23.2, 0.2 -34.03 M0.2 -34.03 C-24.35 -34.24, -48.89 -34.46, -75.12 -34.7 M0.2 -34.03 C-16.51 -34.18, -33.22 -34.32, -75.12 -34.7 M-75.12 -34.7 C-75.17 -16.82, -75.22 1.05, -75.38 51.5 M-75.12 -34.7 C-75.2 -8.19, -75.28 18.32, -75.38 51.5 M-75.38 51.5 C-66.93 51.76, -58.48 52.03, -46.04 52.41 M-75.38 51.5 C-66.31 51.78, -57.24 52.07, -46.04 52.41"
                stroke="#000" stroke-width="4" fill="none"></path>
        </g>
    </g>
    <mask></mask>
    <g stroke-linecap="round">
        <g
            transform="translate(89.78442443924723 290.4816144291067) rotate(0 -12.184559840541624 13.970359089737485)">
            <path
                d="M0 0 C-6.67 0.05, -13.34 0.1, -24.26 0.19 M0 0 C-9.66 0.08, -19.33 0.15, -24.26 0.19 M-24.26 0.19 C-24.29 7.88, -24.32 15.58, -24.37 27.94 M-24.26 0.19 C-24.29 7.57, -24.32 14.96, -24.37 27.94"
                stroke="#3d71b7" stroke-width="4" fill="none"></path>
        </g>
    </g>
    <mask></mask>
    <g stroke-linecap="round">
        <g
            transform="translate(95.90920329047003 320.45821112499516) rotate(0 10.241766806680971 19.897132692152354)"
            fill-rule="evenodd">
            <path d="M0 0 L20.14 -0.2 L30.27 19.75 L20.02 39.92 L0.26 39.99 L-9.78 19.93 L0 0"
                stroke="none" stroke-width="0" fill="#ff00" fill-rule="evenodd"></path>
            <path
                d="M0 0 C6.81 -0.07, 13.61 -0.13, 20.14 -0.2 M0 0 C4.75 -0.05, 9.5 -0.09, 20.14 -0.2 M20.14 -0.2 C23.22 5.87, 26.3 11.93, 30.27 19.75 M20.14 -0.2 C24.16 7.71, 28.17 15.62, 30.27 19.75 M30.27 19.75 C27.39 25.41, 24.52 31.06, 20.02 39.92 M30.27 19.75 C26.68 26.81, 23.09 33.87, 20.02 39.92 M20.02 39.92 C16.05 39.93, 12.07 39.95, 0.26 39.99 M20.02 39.92 C14.23 39.94, 8.44 39.96, 0.26 39.99 M0.26 39.99 C-2.1 35.28, -4.46 30.57, -9.78 19.93 M0.26 39.99 C-2.33 34.82, -4.92 29.64, -9.78 19.93 M-9.78 19.93 C-6.66 13.56, -3.53 7.19, 0 0 M-9.78 19.93 C-7.55 15.39, -5.32 10.84, 0 0 M0 0 C0 0, 0 0, 0 0 M0 0 C0 0, 0 0, 0 0"
                stroke="#000" stroke-width="4" fill="none"></path>
        </g>
    </g>
    <mask></mask>
    <g stroke-linecap="round"
        transform="translate(99.03975095742135 332.0698414779463) rotate(0 7.318963851766966 8.425440202601749)">
        <path
            d="M14.64 8.43 C14.64 8.91, 14.6 9.41, 14.53 9.89 C14.45 10.37, 14.34 10.85, 14.2 11.31 C14.05 11.77, 13.87 12.22, 13.66 12.64 C13.45 13.06, 13.2 13.47, 12.93 13.84 C12.65 14.21, 12.35 14.57, 12.02 14.88 C11.7 15.19, 11.35 15.48, 10.98 15.72 C10.61 15.97, 10.22 16.18, 9.82 16.34 C9.42 16.51, 9.01 16.64, 8.59 16.72 C8.17 16.81, 7.74 16.85, 7.32 16.85 C6.9 16.85, 6.47 16.81, 6.05 16.72 C5.63 16.64, 5.21 16.51, 4.82 16.34 C4.42 16.18, 4.03 15.97, 3.66 15.72 C3.29 15.48, 2.94 15.19, 2.61 14.88 C2.29 14.57, 1.98 14.21, 1.71 13.84 C1.44 13.47, 1.19 13.06, 0.98 12.64 C0.77 12.22, 0.59 11.77, 0.44 11.31 C0.3 10.85, 0.18 10.37, 0.11 9.89 C0.04 9.41, 0 8.91, 0 8.43 C0 7.94, 0.04 7.44, 0.11 6.96 C0.18 6.48, 0.3 6, 0.44 5.54 C0.59 5.09, 0.77 4.64, 0.98 4.21 C1.19 3.79, 1.44 3.38, 1.71 3.01 C1.98 2.64, 2.29 2.28, 2.61 1.97 C2.94 1.66, 3.29 1.37, 3.66 1.13 C4.03 0.88, 4.42 0.67, 4.82 0.51 C5.21 0.34, 5.63 0.21, 6.05 0.13 C6.47 0.04, 6.9 0, 7.32 0 C7.74 0, 8.17 0.04, 8.59 0.13 C9.01 0.21, 9.42 0.34, 9.82 0.51 C10.22 0.67, 10.61 0.88, 10.98 1.13 C11.35 1.37, 11.7 1.66, 12.02 1.97 C12.35 2.28, 12.65 2.64, 12.93 3.01 C13.2 3.38, 13.45 3.79, 13.66 4.21 C13.87 4.64, 14.05 5.09, 14.2 5.54 C14.34 6, 14.45 6.48, 14.53 6.96 C14.6 7.44, 14.62 8.18, 14.64 8.43 C14.66 8.67, 14.66 8.18, 14.64 8.43"
            stroke="#000" stroke-width="4" fill="none"></path>
    </g>
    <g stroke-linecap="round"
        transform="translate(10.589707965536945 128.61116014247273) rotate(0 481.1181597568957 186.46887256850073)">
        <path
            d="M32 0 C267.67 2.4, 501.01 -0.54, 930.24 0 M32 0 C255.09 0.78, 477.8 0.34, 930.24 0 M930.24 0 C949.04 2.38, 959.31 7.54, 962.24 32 M930.24 0 C950.01 4.44, 958.72 14.56, 962.24 32 M962.24 32 C962.92 135.82, 967.59 239.22, 962.24 340.94 M962.24 32 C962.93 155.91, 962.22 278.18, 962.24 340.94 M962.24 340.94 C963.78 360.87, 951.08 376.25, 930.24 372.94 M962.24 340.94 C957.69 364.31, 955.8 369.28, 930.24 372.94 M930.24 372.94 C625.33 378.55, 320.66 377.14, 32 372.94 M930.24 372.94 C691.74 378.56, 454.27 378.26, 32 372.94 M32 372.94 C11.89 369.5, -3.91 360.59, 0 340.94 M32 372.94 C13.6 371.61, -2.86 361.3, 0 340.94 M0 340.94 C-5.61 246.55, -1.64 146.95, 0 32 M0 340.94 C-3.59 248.51, -3.66 156.03, 0 32 M0 32 C-3.43 10.22, 14.52 0.28, 32 0 M0 32 C-3.4 12.6, 6.15 -1.9, 32 0"
            stroke="#1971c2" stroke-width="2" fill="none"></path>
    </g>
    <g stroke-linecap="round"
        transform="translate(10 538.191403130199) rotate(0 482.08864025943876 397.54231851420104)">
        <path
            d="M32 0 C393.06 0.83, 750.2 0.29, 932.18 0 M32 0 C276.21 4.81, 521.18 4.93, 932.18 0 M932.18 0 C956.79 0.89, 961.76 6.96, 964.18 32 M932.18 0 C957.29 0.06, 960.86 15.09, 964.18 32 M964.18 32 C965.04 278.8, 965.82 523.19, 964.18 763.08 M964.18 32 C965.35 221.52, 966.25 409.91, 964.18 763.08 M964.18 763.08 C965.06 783.6, 954.15 791.37, 932.18 795.08 M964.18 763.08 C965.18 784.66, 955.08 792.54, 932.18 795.08 M932.18 795.08 C702.4 792.91, 474.35 793.93, 32 795.08 M932.18 795.08 C648.47 799.27, 365.57 798.86, 32 795.08 M32 795.08 C9.09 791.76, -3.96 780.9, 0 763.08 M32 795.08 C7.31 797.16, -3.2 788.72, 0 763.08 M0 763.08 C3.64 561, 2.76 357.93, 0 32 M0 763.08 C4.52 525.13, 5.23 287.3, 0 32 M0 32 C-1.51 12.65, 13.51 1.76, 32 0 M0 32 C-3.43 8.74, 7.79 0.2, 32 0"
            stroke="#1971c2" stroke-width="2" fill="none"></path>
    </g>
    <g transform="translate(62.92774260864462 603.7005402645025) rotate(0 323.4598388671875 22.5)">
        <text x="0" y="31.536" font-family="Virgil, Segoe UI Emoji" font-size="36px" fill="#1971c2"
            text-anchor="start" style="white-space: pre;" direction="ltr"
            dominant-baseline="alphabetic">1. register new product( name , file )</text>
    </g>
    <g transform="translate(59.42666700851623 930.1469175738614) rotate(0 185.9219207763672 22.5)">
        <text x="0" y="31.536" font-family="Virgil, Segoe UI Emoji" font-size="36px" fill="#1971c2"
            text-anchor="start" style="white-space: pre;" direction="ltr"
            dominant-baseline="alphabetic">2. generate ZPL file</text>
    </g>
    <g stroke-linecap="round">
        <g
            transform="translate(912.4739370544448 768.3259493518051) rotate(0 -43.33936892435668 12.668453641314954)">
            <path
                d="M0 0 C-0.01 -3.25, -0.02 -6.5, -0.04 -14.99 M0 0 C-0.01 -3.93, -0.02 -7.86, -0.04 -14.99 M-0.04 -14.99 C-9.13 -18.23, -18.21 -21.47, -44.03 -30.68 M-0.04 -14.99 C-14.19 -20.04, -28.35 -25.09, -44.03 -30.68 M-44.03 -30.68 C-56.34 -26.18, -68.64 -21.68, -86.49 -15.15 M-44.03 -30.68 C-57.61 -25.72, -71.18 -20.75, -86.49 -15.15 M-86.49 -15.15 C-86.58 1.25, -86.66 17.65, -86.76 36.61 M-86.49 -15.15 C-86.55 -4.76, -86.6 5.63, -86.76 36.61 M-86.76 36.61 C-77.28 40.88, -67.79 45.14, -43.59 56.02 M-86.76 36.61 C-71.74 43.37, -56.72 50.12, -43.59 56.02 M-43.59 56.02 C-32.84 51.28, -22.09 46.55, 0.08 36.77 M-43.59 56.02 C-26.17 48.34, -8.75 40.67, 0.08 36.77 M0.08 36.77 C0.06 30.17, 0.04 23.57, 0.01 14.34 M0.08 36.77 C0.06 28.67, 0.03 20.57, 0.01 14.34"
                stroke="#000" stroke-width="4" fill="none"></path>
        </g>
    </g>
    <mask></mask>
    <g stroke-linecap="round">
        <g
            transform="translate(841.8853844507503 760.9231293454352) rotate(0 13.689775620250657 20.425786362288363)">
            <path
                d="M0 0 C9.26 3.35, 18.52 6.69, 27.38 9.89 M0 0 C10.1 3.65, 20.21 7.3, 27.38 9.89 M27.38 9.89 C27.32 19.72, 27.26 29.55, 27.19 40.85 M27.38 9.89 C27.33 18.18, 27.28 26.48, 27.19 40.85"
                stroke="#3d71b7" stroke-width="4" fill="none"></path>
        </g>
    </g>
    <mask></mask>
    <g stroke-linecap="round"
        transform="translate(66.47398246480952 691.1384033947652) rotate(0 37.5 35.416666666666515)">
        <path
            d="M9.49 10.9 C9.49 10.9, 9.49 10.9, 9.49 10.9 M9.49 10.9 C9.49 10.9, 9.49 10.9, 9.49 10.9 M-3.85 31 C9.16 19.07, 18.03 10.48, 29.55 2.34 M-1.18 33.83 C8.14 22.45, 17.19 12.27, 31.06 -0.57 M-1.96 42.31 C13.26 30.37, 30.06 16.45, 42.86 2.6 M3.77 43.77 C13.35 31.41, 26.36 14.05, 40.19 0.9 M1.12 51.5 C20.25 34.99, 29.99 21.56, 52.31 3.47 M5.46 54.67 C20.12 36.04, 33.81 18.73, 48.63 3.25 M10.69 55.17 C27.23 40.58, 46.76 23.06, 56.17 3.74 M9.7 59.24 C27.72 37.73, 43.89 20.91, 57.39 4.39 M21.64 64.06 C31.42 49.26, 42.39 35.65, 59 11.88 M16.94 63.79 C26.49 53.38, 36.08 39.22, 64.51 12.67 M23.51 70.4 C41.84 49.53, 58.52 31.26, 64.29 20.27 M25.54 68.31 C43.1 46.94, 57.45 30.31, 69.86 15.85 M36.37 66.25 C46.69 60.74, 54.97 48.21, 74.34 27.51 M31.77 67.7 C42.78 58.35, 49.22 49.9, 69.24 24.3 M43.46 69.69 C53.01 66.06, 54.4 58.15, 71.38 38.29 M40.71 70.72 C50.12 63.15, 58.75 53.9, 71.67 33.67 M61.62 59.85 C63.09 57.38, 64.84 55.61, 66.43 55.12 M62.58 59.26 C63.46 57.53, 65.76 56.61, 66.43 54.61"
            stroke="#ffffff" stroke-width="1" fill="none"></path>
        <path
            d="M9.41 11 C13.64 5.84, 22.45 1, 29.72 -0.46 C36.98 -1.92, 46.57 -0.6, 53 2.26 C59.43 5.13, 64.67 10.16, 68.29 16.72 C71.91 23.29, 75.57 34.62, 74.7 41.67 C73.84 48.73, 67.9 54.17, 63.1 59.04 C58.3 63.91, 52.61 69.71, 45.92 70.89 C39.23 72.07, 30.01 69.3, 22.95 66.12 C15.89 62.95, 7.63 57.39, 3.56 51.83 C-0.52 46.26, -3.16 40, -1.49 32.74 C0.17 25.47, 10.66 12.3, 13.54 8.25 C16.43 4.2, 15.35 7.9, 15.81 8.42 M45.51 0.99 C52.15 2.57, 58.43 8.8, 62.93 13.66 C67.44 18.51, 71.32 23.47, 72.54 30.12 C73.76 36.77, 73.45 47.78, 70.23 53.56 C67.01 59.35, 59.74 62.2, 53.22 64.85 C46.71 67.5, 38.63 69.86, 31.15 69.46 C23.66 69.07, 13.82 66.93, 8.33 62.48 C2.83 58.03, -1.26 50.47, -1.84 42.79 C-2.43 35.1, 0.92 23.29, 4.83 16.35 C8.74 9.41, 14.73 4.07, 21.6 1.12 C28.48 -1.82, 42.38 -1.49, 46.11 -1.33 C49.83 -1.16, 44.24 1.19, 43.96 2.1"
            stroke="#343a40" stroke-width="2" fill="none"></path>
    </g>
    <g stroke-linecap="round">
        <g
            transform="translate(79.81078282277304 752.3918704193957) rotate(0 9.143075820958984 39.1634592626383)"
            fill-rule="evenodd">
            <path
                d="M-1.75 -3.85 C-3.55 2.12, -12.96 19.79, -13.87 33.26 C-14.77 46.73, -15.46 70.43, -7.18 76.96 C1.09 83.49, 30.55 79.66, 35.77 72.44 C40.98 65.22, 24.05 44.63, 24.09 33.67 C24.13 22.71, 37.52 11.19, 36 6.67 C34.48 2.16, 21.38 7.03, 14.97 6.58 C8.57 6.12, 0.58 5.18, -2.43 3.96"
                stroke="none" stroke-width="0" fill="#ffffff" fill-rule="evenodd"></path>
            <path
                d="M-2.3 0.41 C-5.01 5.95, -18.1 18.08, -18.82 30.94 C-19.54 43.79, -14.93 71.02, -6.62 77.52 C1.7 84.03, 26.17 77.88, 31.05 69.98 C35.92 62.07, 22.21 40.05, 22.63 30.11 C23.05 20.17, 34.69 14.8, 33.55 10.34 C32.42 5.88, 21.54 4.8, 15.84 3.36 C10.13 1.91, 1.78 1.96, -0.69 1.7 M1.65 -1.84 C0.11 4.31, -11.51 20.41, -13.22 34.09 C-14.94 47.76, -15.98 73.82, -8.65 80.2 C-1.31 86.57, 24.84 80.8, 30.78 72.35 C36.72 63.91, 26.18 40.28, 27.01 29.53 C27.84 18.78, 38.56 11.56, 35.76 7.87 C32.97 4.18, 16.77 8.41, 10.23 7.4 C3.68 6.39, -1.38 3.14, -3.48 1.81"
                stroke="#343a40" stroke-width="2" fill="none"></path>
        </g>
    </g>
    <mask></mask>
    <g
        transform="translate(119.77675920393813 735.1635905626035) rotate(0 0.00005000000055588316 0.00004999999998744897)"
        stroke="none">
        <path fill="#343a40"
            d="M 1.57,-1.57 Q 1.57,-1.57 1.77,-1.27 1.98,-0.98 2.09,-0.64 2.20,-0.29 2.19,0.05 2.18,0.41 2.05,0.75 1.93,1.09 1.70,1.37 1.48,1.65 1.18,1.84 0.87,2.04 0.52,2.12 0.18,2.21 -0.17,2.18 -0.53,2.15 -0.86,2.01 -1.19,1.87 -1.46,1.63 -1.73,1.39 -1.90,1.07 -2.08,0.76 -2.15,0.41 -2.21,0.05 -2.17,-0.29 -2.12,-0.65 -1.96,-0.97 -1.80,-1.29 -1.54,-1.54 -1.29,-1.80 -0.97,-1.96 -0.65,-2.12 -0.29,-2.17 0.06,-2.21 0.41,-2.15 0.76,-2.08 1.07,-1.90 1.39,-1.73 1.63,-1.46 1.87,-1.19 2.01,-0.86 2.15,-0.53 2.18,-0.17 2.21,0.18 2.12,0.52 2.03,0.87 1.84,1.18 1.65,1.48 1.37,1.70 1.09,1.93 0.75,2.05 0.41,2.18 0.05,2.19 -0.30,2.20 -0.64,2.09 -0.98,1.98 -1.27,1.77 -1.57,1.56 -1.57,1.57 -1.57,1.57 -1.73,1.35 -1.90,1.14 -2.01,0.90 -2.12,0.66 -2.16,0.39 -2.21,0.13 -2.20,-0.13 -2.18,-0.40 -2.10,-0.65 -2.02,-0.91 -1.88,-1.14 -1.74,-1.36 -1.55,-1.55 -1.36,-1.74 -1.14,-1.88 -0.91,-2.02 -0.65,-2.10 -0.40,-2.18 -0.13,-2.20 0.13,-2.21 0.39,-2.16 0.66,-2.12 0.90,-2.01 1.14,-1.90 1.35,-1.73 1.57,-1.57 1.57,-1.57 L 1.57,-1.57 Z"></path>
    </g>
    <g transform="translate(133.9541650605679 737.100377036184) rotate(0 0 -0.721266575300433)"
        stroke="none">
        <path d="" stroke="#ffffff" stroke-width="0.5" fill="none"></path>
        <path fill="#343a40"
            d="M 2.12,-0.66 Q 2.12,-0.66 2.15,-0.13 2.18,0.40 1.96,0.88 1.74,1.36 1.32,1.69 0.91,2.02 0.38,2.12 -0.13,2.21 -0.64,2.05 -1.14,1.90 -1.52,1.52 -1.90,1.14 -2.05,0.64 -2.21,0.13 -2.12,-0.38 -2.02,-0.91 -1.69,-1.32 -1.36,-1.74 -0.88,-1.96 -0.39,-2.18 0.13,-2.15 0.66,-2.11 1.11,-1.84 1.57,-1.56 1.84,-1.11 L 2.12,-0.66 Z"></path>
    </g>
    <g stroke-linecap="round">
        <g
            transform="translate(117.80194583202683 750.0045366938784) rotate(180.707313349537 6.842912605548918 -2.4813444014994275)">
            <path
                d="M-0.31 -0.08 C0.49 -0.97, 2.41 -5.18, 4.68 -5.51 C6.94 -5.83, 11.69 -2.54, 13.28 -2.04 M0.54 -0.6 C1.52 -1.43, 3.46 -4.95, 5.77 -5.09 C8.07 -5.23, 13.19 -1.91, 14.39 -1.45"
                stroke="#343a40" stroke-width="1" fill="none"></path>
        </g>
    </g>
    <mask></mask>
    <g stroke-linecap="round">
        <g
            transform="translate(114.32623386817068 817.4894643522348) rotate(0 19.63809829121965 25.795704881388247)">
            <path
                d="M0 0 C7.61 -1.91, 19.15 0.94, 39.28 -2.58 M0 0 C8.49 -0.15, 15.55 -1.89, 39.28 -2.58 M39.28 -2.58 C39.29 11.73, 37.86 28.37, 38.71 54.17 M39.28 -2.58 C39.17 16.26, 39.32 36.93, 38.71 54.17"
                stroke="#343a40" stroke-width="2" fill="none"></path>
        </g>
    </g>
    <mask></mask>
    <g stroke-linecap="round">
        <g
            transform="translate(78.01194072959697 834.3184378367132) rotate(0 31.157990386140227 20.478807952935767)">
            <path
                d="M0 0 C15.47 1.84, 29.1 -1.26, 62.32 -2.48 M0 0 C21.75 -1.87, 44.53 -3.06, 62.32 -2.48 M62.32 -2.48 C60.17 16.38, 60.06 32.36, 57.9 43.44 M62.32 -2.48 C61.39 12.22, 58.99 27.59, 57.9 43.44"
                stroke="#343a40" stroke-width="2" fill="none"></path>
        </g>
    </g>
    <mask></mask>
    <g stroke-linecap="round">
        <g
            transform="translate(136.78706768061602 878.6247216254233) rotate(0 7.402623965816019 6.531727028660498)">
            <path
                d="M0.55 -0.51 C3.06 1.72, 12.26 11.08, 14.67 13.4 M0.16 0.41 C2.63 2.49, 11.74 10.58, 14.17 12.6"
                stroke="#343a40" stroke-width="2" fill="none"></path>
        </g>
    </g>
    <mask></mask>
    <g stroke-linecap="round">
        <g
            transform="translate(153.33410948655728 870.7866491910299) rotate(0 7.402623965816019 0.8708969371550666)">
            <path
                d="M-0.13 0.33 C2.27 0.77, 12.58 1.9, 15 2.09 M0.8 0.03 C3.1 0.35, 12.22 0.99, 14.67 1.3"
                stroke="#343a40" stroke-width="2" fill="none"></path>
        </g>
    </g>
    <mask></mask>
    <g stroke-linecap="round">
        <g
            transform="translate(117.20825717639673 825.8420103363214) rotate(0 24.551025825925535 -3.391918041740155)"
            fill-rule="evenodd">
            <path d="M-1.21 -1.17 L20.86 -15.06 L55.76 -16.05 L32.32 10.33 L-8.71 9.15 L1.44 0.8"
                stroke="none" stroke-width="0" fill="#ffffff" fill-rule="evenodd"></path>
            <path
                d="M0 0 C7.11 -5.94, 10.66 -9.78, 21.64 -16.15 M0 0 C4.23 -3.8, 9.76 -6.44, 21.64 -16.15 M21.64 -16.15 C30.23 -15.5, 42.49 -17.68, 55.89 -16.8 M21.64 -16.15 C34.93 -15.89, 48.22 -17.42, 55.89 -16.8 M55.89 -16.8 C50.5 -10.07, 43.48 -0.03, 33.27 10.01 M55.89 -16.8 C51.5 -11.61, 45.77 -4.7, 33.27 10.01 M33.27 10.01 C21.67 11.1, 8.09 10.9, -6.78 10.01 M33.27 10.01 C21.58 9.56, 10.13 9.51, -6.78 10.01 M-6.78 10.01 C-2.86 6.26, 0.07 3.34, 2.26 0.32 M-6.78 10.01 C-5.37 8.2, -2.91 6.17, 2.26 0.32 M2.26 0.32 C1.61 0.13, 1.31 0.16, 0 0 M2.26 0.32 C1.42 0.14, 0.56 0.02, 0 0"
                stroke="#343a40" stroke-width="1" fill="none"></path>
        </g>
    </g>
    <mask></mask>
    <g stroke-linecap="round">
        <g
            transform="translate(116.92949904422494 825.5334905012287) rotate(0 24.551025825925535 -3.391918041740155)"
            fill-rule="evenodd">
            <path
                d="M0 0 C0 0, 0 0, 0 0 M0 0 C0 0, 0 0, 0 0 M-3.54 10.17 C0.5 3.78, 6.91 -0.4, 14.83 -10.96 M-3.54 10.17 C0.24 5.84, 4.83 0.32, 14.83 -10.96 M1.45 10.53 C6.74 3.6, 14.79 -2.26, 24.41 -15.88 M1.45 10.53 C9.16 2.93, 16.56 -6.46, 24.41 -15.88 M7.09 10.14 C16.59 2.42, 24.35 -9.65, 30.05 -16.28 M7.09 10.14 C13.95 3.56, 20.75 -4.99, 30.05 -16.28 M12.08 10.5 C17.26 2.17, 25.38 -3.27, 35.04 -15.92 M12.08 10.5 C17.88 3.73, 22.68 -2.79, 35.04 -15.92 M17.72 10.1 C23.56 3.63, 28.9 -3, 40.68 -16.31 M17.72 10.1 C22.22 4.09, 26.7 0.12, 40.68 -16.31 M22.71 10.46 C26.77 6.49, 34.88 0.07, 46.32 -16.71 M22.71 10.46 C28.79 4.5, 33.64 -1.46, 46.32 -16.71 M28.35 10.07 C38.64 -0.11, 44.3 -8.52, 51.31 -16.35 M28.35 10.07 C36.66 0.76, 46.91 -10.81, 51.31 -16.35 M-7.12 9.72 C-7.12 9.72, -7.12 9.72, -7.12 9.72 M-7.12 9.72 C-7.12 9.72, -7.12 9.72, -7.12 9.72 M-0.73 9.98 C-1.67 9.58, -2.54 8.4, -3.74 7.36 M-0.73 9.98 C-1.33 9.42, -1.81 9.07, -3.74 7.36 M5.67 10.24 C4.58 8.03, 1.35 6.44, -1.12 4.34 M5.67 10.24 C4.49 9.29, 2.93 7.45, -1.12 4.34 M11.32 9.85 C10.05 6.76, 6.7 4.8, 1.5 1.32 M11.32 9.85 C8.93 7.69, 7.04 5.37, 1.5 1.32 M17.71 10.11 C12.35 5.46, 11.4 4.84, 3.37 -2.36 M17.71 10.11 C13.9 6.87, 9.98 3.33, 3.37 -2.36 M23.36 9.71 C18.92 2.84, 9.46 -1.1, 6.75 -4.72 M23.36 9.71 C17.7 5.45, 12.01 -0.98, 6.75 -4.72 M29.75 9.98 C21.7 4.51, 14.65 -1.98, 9.38 -7.74 M29.75 9.98 C23.55 3.35, 17.35 -1.7, 9.38 -7.74 M34.64 8.92 C28.72 3.68, 23.95 0.43, 12.76 -10.1 M34.64 8.92 C26.45 2.3, 19.06 -5, 12.76 -10.1 M37.27 5.91 C31.9 2.81, 27.29 -3.93, 16.13 -12.46 M37.27 5.91 C31.92 0.78, 28.57 -2.33, 16.13 -12.46 M39.89 2.89 C32.97 -3.68, 26.3 -11.24, 19.51 -14.83 M39.89 2.89 C36.22 -0.54, 30.62 -4.29, 19.51 -14.83 M41.76 -0.79 C37 -7.2, 28.21 -9.59, 23.65 -16.53 M41.76 -0.79 C37.01 -3.49, 33.67 -8.15, 23.65 -16.53 M44.38 -3.81 C41.05 -6.39, 33.68 -14.66, 29.29 -16.93 M44.38 -3.81 C39.77 -9.2, 33.46 -13.77, 29.29 -16.93 M47.01 -6.83 C43.58 -8.91, 38.89 -13.25, 35.69 -16.67 M47.01 -6.83 C43.26 -10.47, 39.29 -12.98, 35.69 -16.67 M49.63 -9.84 C46.13 -11.51, 44.04 -14.51, 41.33 -17.06 M49.63 -9.84 C46.69 -12.78, 43.28 -15.2, 41.33 -17.06 M52.26 -12.86 C50.96 -14.12, 49.22 -15.54, 47.73 -16.8 M52.26 -12.86 C51.39 -13.72, 50.57 -14.66, 47.73 -16.8 M54.88 -15.88 C54.36 -16.09, 54.25 -16.39, 53.37 -17.19 M54.88 -15.88 C54.55 -16.12, 54.24 -16.48, 53.37 -17.19"
                stroke="#868e96" stroke-width="0.5" fill="none"></path>
            <path
                d="M0 0 C6 -6.08, 12.68 -9.11, 21.64 -16.15 M0 0 C7.96 -4.84, 14.45 -10.51, 21.64 -16.15 M21.64 -16.15 C32.49 -17.61, 44.59 -18.11, 55.89 -16.8 M21.64 -16.15 C31.12 -17.31, 41.08 -16.94, 55.89 -16.8 M55.89 -16.8 C52.64 -10.53, 44.15 -4.33, 33.27 10.01 M55.89 -16.8 C51.04 -10.75, 46.39 -5.1, 33.27 10.01 M33.27 10.01 C24.03 11.3, 11.76 10.46, -6.78 10.01 M33.27 10.01 C18.73 9.06, 5.7 9.6, -6.78 10.01 M-6.78 10.01 C-3.12 6.71, -2.67 3.04, 2.26 0.32 M-6.78 10.01 C-4.05 7.34, -1.86 3.62, 2.26 0.32 M2.26 0.32 C1.63 0.2, 1.16 0.14, 0 0 M2.26 0.32 C1.6 0.16, 0.92 0.06, 0 0"
                stroke="#343a40" stroke-width="1" fill="none"></path>
        </g>
    </g>
    <mask></mask>
    <g stroke-linecap="round">
        <g
            transform="translate(150.84867946162194 834.5786052792009) rotate(0 15.182871234454069 -32.788541070150586)"
            fill-rule="evenodd">
            <path d="M-1.08 -0.07 L5.28 -33.81 L30.48 -65.97 L23.25 -27.78 L-0.43 -1.01"
                stroke="none" stroke-width="0" fill="#ffffff" fill-rule="evenodd"></path>
            <path
                d="M0 0 C-0.3 -6.46, 3.38 -16.58, 5.49 -35.21 M0 0 C1.22 -9.31, 2.78 -19.8, 5.49 -35.21 M5.49 -35.21 C15.82 -46.93, 22.2 -56.16, 30.37 -65.58 M5.49 -35.21 C14.26 -45.77, 22.05 -55.13, 30.37 -65.58 M30.37 -65.58 C27.56 -56.51, 25.88 -46.68, 23.26 -26.81 M30.37 -65.58 C28.98 -56.36, 26.62 -46.36, 23.26 -26.81 M23.26 -26.81 C14.63 -16.79, 7.54 -8.2, 0 0 M23.26 -26.81 C17.79 -20.81, 12.07 -13.56, 0 0 M0 0 C0 0, 0 0, 0 0 M0 0 C0 0, 0 0, 0 0"
                stroke="#343a40" stroke-width="2" fill="none"></path>
        </g>
    </g>
    <mask></mask>
    <g stroke-linecap="round">
        <g
            transform="translate(108.9183656916648 777.6006769154701) rotate(0 19.989151658161063 16.714033950343037)">
            <path
                d="M0.95 0.4 C3.34 3.72, 7.22 13.28, 13.86 18.88 C20.51 24.48, 36.49 31.53, 40.84 33.99 M-0.01 -0.44 C2.25 3.15, 6.02 14.82, 12.77 20.22 C19.53 25.62, 35.96 29.5, 40.53 31.94"
                stroke="#343a40" stroke-width="2" fill="none"></path>
        </g>
    </g>
    <mask></mask>
    <g stroke-linecap="round">
        <g
            transform="translate(82.24360045336653 754.4094994257894) rotate(0 31.135105782688697 33.11374200127011)">
            <path
                d="M-0.27 -0.37 C2.04 6.48, 5.86 31.37, 14.8 41.49 C23.74 51.62, 45.45 56.42, 53.38 60.37 C61.31 64.33, 60.8 64.21, 62.37 65.21 M1.79 -1.62 C3.93 4.84, 5.84 29.1, 14.31 39.67 C22.78 50.24, 44.56 57.45, 52.62 61.81 C60.68 66.16, 61.18 64.94, 62.67 65.78"
                stroke="#343a40" stroke-width="2" fill="none"></path>
        </g>
    </g>
    <mask></mask>
    <g mask="url(#mask-7106p6ArOsZcbveOY6czE)" stroke-linecap="round">
        <g transform="translate(214.31521326922302 723.88365156094) rotate(0 290.6092449590233 0)">
            <path
                d="M0.68 -1.06 C98.07 -1.03, 485.55 1.61, 582.76 1.93 M-2.39 -4.1 C94.9 -5.02, 483.69 -2.01, 581.36 -2.03"
                stroke="#f08c00" stroke-width="2" fill="none"></path>
        </g>
        <g transform="translate(214.31521326922302 723.88365156094) rotate(0 290.6092449590233 0)">
            <path
                d="M557.08 7.53 C564.92 6.24, 569.93 3.88, 579.65 -3.9 M556.91 5.51 C563.13 4.23, 570.95 1.44, 580.8 -2.23"
                stroke="#f08c00" stroke-width="2" fill="none"></path>
        </g>
        <g transform="translate(214.31521326922302 723.88365156094) rotate(0 290.6092449590233 0)">
            <path
                d="M557.15 -9.57 C565.08 -6.67, 570.07 -4.84, 579.65 -3.9 M556.98 -11.59 C563.21 -8.32, 571.01 -6.56, 580.8 -2.23"
                stroke="#f08c00" stroke-width="2" fill="none"></path>
        </g>
    </g>
    <mask id="mask-7106p6ArOsZcbveOY6czE">
        <rect x="0" y="0" fill="#fff" width="895.5337031872696" height="823.88365156094"></rect>
        <rect x="355.43452902902936" y="678.88365156094" fill="#000" width="298.9798583984375"
            height="90" opacity="1"></rect>
    </mask>
    <g
        transform="translate(355.43452902902936 678.88365156094) rotate(0 149.06507034618153 43.830241244405556)">
        <text x="149.48992919921875" y="31.536" font-family="Virgil, Segoe UI Emoji"
            font-size="36px" fill="#f08c00" text-anchor="middle" style="white-space: pre;"
            direction="ltr" dominant-baseline="alphabetic">POST:</text>
        <text x="149.48992919921875" y="76.536" font-family="Virgil, Segoe UI Emoji"
            font-size="36px" fill="#f08c00" text-anchor="middle" style="white-space: pre;"
            direction="ltr" dominant-baseline="alphabetic">/upload-template</text>
    </g>
    <g mask="url(#mask-oo-iUpent1MQzNoITG7KE)" stroke-linecap="round">
        <g transform="translate(819.7839540604546 839.6204893739141) rotate(0 -303.994216303121 0)">
            <path
                d="M1.93 2.72 C-99.08 2.84, -505.07 3.2, -607.12 2.31 M-0.46 1.72 C-101.67 0.96, -508.15 -1, -608.88 -1.45"
                stroke="#f08c00" stroke-width="2" fill="none"></path>
        </g>
        <g transform="translate(819.7839540604546 839.6204893739141) rotate(0 -303.994216303121 0)">
            <path
                d="M-583.41 -9.26 C-589.83 -9.21, -599.52 -5.97, -608.53 -0.05 M-585.13 -9.28 C-590.64 -8.91, -595.42 -7.3, -609.61 -1.55"
                stroke="#f08c00" stroke-width="2" fill="none"></path>
        </g>
        <g transform="translate(819.7839540604546 839.6204893739141) rotate(0 -303.994216303121 0)">
            <path
                d="M-583.49 7.84 C-589.98 3.4, -599.65 2.16, -608.53 -0.05 M-585.21 7.82 C-590.55 4.63, -595.31 2.69, -609.61 -1.55"
                stroke="#f08c00" stroke-width="2" fill="none"></path>
        </g>
    </g>
    <mask id="mask-oo-iUpent1MQzNoITG7KE">
        <rect x="0" y="0" fill="#fff" width="1527.7723866666965" height="939.6204893739141"></rect>
        <rect x="367.6678047739333" y="817.1204893739141" fill="#000" width="296.2438659667969"
            height="45" opacity="1"></rect>
    </mask>
    <g
        transform="translate(367.6678047739333 817.1204893739141) rotate(0 148.64119290288727 23.224873827616534)">
        <text x="148.12193298339844" y="31.536" font-family="Virgil, Segoe UI Emoji"
            font-size="36px" fill="#f08c00" text-anchor="middle" style="white-space: pre;"
            direction="ltr" dominant-baseline="alphabetic">success message</text>
    </g>
    <g stroke-opacity="0.8" fill-opacity="0.8" stroke-linecap="round"
        transform="translate(72.23141674289582 1040.7255388478877) rotate(0 39.09967181585489 36.92746782608572)">
        <path
            d="M5.64 16.82 C5.64 16.82, 5.64 16.82, 5.64 16.82 M5.64 16.82 C5.64 16.82, 5.64 16.82, 5.64 16.82 M1.53 32.67 C2.8 24.33, 14.6 23.3, 30.62 5.2 M-0.25 37.19 C8.65 22.91, 18.19 14.35, 29.29 3.14 M0.08 41.47 C10.55 35.77, 24.74 21.82, 39.79 -1.12 M3.69 47.42 C13.08 30.61, 28.74 15.54, 40.43 2.28 M7.77 50.88 C18.2 35.95, 33.66 23.33, 53.53 2.64 M5.92 53.84 C14.25 42.85, 26.05 29.76, 50.61 3.11 M7.58 61.87 C25.5 45.34, 42.55 19.66, 56.59 7.06 M10.56 60.18 C25.3 46.23, 38 31.09, 58.12 7.77 M12.32 67.24 C27.15 55.31, 34 42.55, 65.21 10.06 M14.9 64.64 C28.64 50.66, 46.46 32.45, 63.48 10.15 M21.63 74.27 C40.28 55.35, 50.72 37.76, 68.93 15.47 M21.23 72.79 C37.99 55.84, 53.61 34.78, 71.92 14.56 M29.85 73.03 C47.74 56.28, 62.73 38.03, 73.9 23.04 M29.54 74 C42.32 57.6, 56.4 41.12, 71.62 23.97 M43.63 69.79 C54.99 58.55, 67.58 40.91, 75.58 32.58 M41.96 73.11 C52.61 60.41, 64.16 45.49, 75.19 32.34 M55.39 67.42 C59.59 64.67, 71 51.41, 75.1 47.9 M56.91 66.94 C64.66 58.72, 72.85 51.3, 74.8 46.71"
            stroke="#ffffff" stroke-width="1" fill="none"></path>
        <path
            d="M49.17 0.51 C56.44 2.03, 64.24 8.14, 68.79 13.92 C73.34 19.7, 75.79 28, 76.47 35.19 C77.15 42.38, 77.2 50.97, 72.87 57.07 C68.55 63.16, 58.21 69.06, 50.51 71.78 C42.82 74.5, 33.69 75.18, 26.67 73.4 C19.65 71.61, 13.04 66.91, 8.4 61.07 C3.75 55.23, -0.8 45.79, -1.22 38.36 C-1.63 30.93, 1.14 22.48, 5.9 16.52 C10.66 10.57, 18.99 4.84, 27.35 2.61 C35.71 0.38, 51.07 2.8, 56.04 3.13 C61.01 3.46, 57.46 3.94, 57.16 4.59 M62.6 8.24 C68.74 11.58, 72.47 17.95, 74.93 24.54 C77.39 31.12, 79.65 41.05, 77.37 47.74 C75.09 54.43, 67.7 60.13, 61.26 64.67 C54.83 69.2, 46.39 75.15, 38.76 74.94 C31.13 74.73, 21.79 68.27, 15.49 63.41 C9.18 58.56, 2.86 52.15, 0.92 45.81 C-1.01 39.48, 1.66 32.21, 3.88 25.41 C6.1 18.6, 8.59 9.01, 14.25 4.98 C19.91 0.95, 29.51 0.59, 37.85 1.23 C46.2 1.86, 60.48 7.17, 64.34 8.8 C68.2 10.42, 62.11 10.53, 61.02 10.96"
            stroke="#000000" stroke-width="2" fill="none"></path>
    </g>
    <g stroke-linecap="round">
        <g stroke-opacity="0.8" fill-opacity="0.8"
            transform="translate(96.12566063036138 1114.5804745000603) rotate(0 22.540061562496703 29.640682327665218)"
            fill-rule="evenodd">
            <path
                d="M0 0 C0 0, 0 0, 0 0 M0 0 C0 0, 0 0, 0 0 M-0.7 10.03 C5.53 8.75, 4.6 2.33, 8.55 1.27 M1.69 10.73 C4.28 6.87, 7.02 4.37, 10.69 0.71 M-2.84 22.69 C9.35 16.64, 13.06 9.71, 23.45 0.94 M-1.03 23.35 C4.7 17.41, 8.74 14.22, 23.38 -0.74 M1.58 40.06 C11.67 29.48, 18.3 18.37, 38.38 -4.86 M0.12 36.6 C15.17 21.3, 27.47 6.92, 34.01 -5.57 M-1.35 52.68 C8.19 36.4, 17.6 26.99, 41.4 4.82 M-0.13 49.1 C17.62 30.92, 34 12.13, 40.95 2.57 M-1.06 64.63 C12.98 51.05, 17.25 35.59, 43.05 10.73 M-0.5 60.29 C14.1 47.12, 29.03 29.32, 46.43 9.03 M6.9 62.42 C18.03 51.89, 29.77 35.39, 42.29 24.46 M7.55 65.63 C15.43 57.22, 20.85 45.8, 43.83 19.34 M14.46 64.98 C27.09 54.8, 35.89 48.5, 44.49 31.04 M18.3 66.79 C22.62 58.23, 29.43 49.62, 46.47 31.93 M25.59 66.63 C32.7 57.83, 41.58 48.18, 41.66 43.85 M27.1 64.84 C36.16 56.51, 42.8 47.84, 44.71 45.26"
                stroke="#ffffff" stroke-width="1" fill="none"></path>
            <path
                d="M0.78 -2.57 C0.97 3.59, -0.84 24.29, -1.19 34.96 C-1.53 45.63, -7.99 57.4, -1.28 61.45 C5.44 65.49, 31.48 65.09, 39.11 59.21 C46.73 53.33, 44.62 37.13, 44.49 26.18 C44.35 15.23, 42.78 -1.71, 38.28 -6.49 C33.77 -11.27, 23.62 -3.59, 17.46 -2.48 C11.31 -1.38, 3.94 0, 1.35 0.12 M-2.24 2.21 C-2.33 8.95, -3.86 27.82, -4.11 38.07 C-4.37 48.32, -11.05 59.98, -3.78 63.72 C3.49 67.46, 30.65 66.46, 39.5 60.52 C48.35 54.59, 49.04 38.51, 49.33 28.12 C49.62 17.73, 46.27 2.59, 41.24 -1.81 C36.2 -6.22, 26.03 1.51, 19.1 1.71 C12.17 1.91, 3 -0.78, -0.34 -0.61"
                stroke="#000000" stroke-width="2" fill="none"></path>
        </g>
    </g>
    <mask></mask>
    <g stroke-linecap="round">
        <g stroke-opacity="0.8" fill-opacity="0.8"
            transform="translate(97.09775664851986 1179.5546590126014) rotate(0 -14.853785451039585 33.27247941032829)">
            <path
                d="M-1.35 -1.82 C-3.91 19.36, -5.68 38.87, 0.9 59.62 M0.96 0.09 C1.13 10.9, -0.5 23.54, -1.56 62.25 M-5.59 57.71 C-8.58 63.58, -16.93 62.14, -28.61 66.47 M-0.91 59.78 C-11.12 60.56, -19.83 64.91, -29.75 64.55"
                stroke="#000000" stroke-width="2" fill="none"></path>
        </g>
    </g>
    <mask></mask>
    <g stroke-linecap="round">
        <g stroke-opacity="0.8" fill-opacity="0.8"
            transform="translate(137.50005307534593 1175.989750504352) rotate(0 14.853785451039585 35.946160791515354)">
            <path
                d="M-2.21 -0.5 C-3.53 15.51, 2.85 31.72, -2.78 64.49 M1.39 -1.24 C0.99 13.11, 1.36 29.4, 1.56 65.41 M3.22 65.25 C12.21 64.65, 19.3 69.16, 30.76 69.8 M1.03 62.49 C8.52 67.03, 15.25 66.21, 29.19 70.63"
                stroke="#000000" stroke-width="2" fill="none"></path>
        </g>
    </g>
    <mask></mask>
    <g stroke-linecap="round">
        <g stroke-opacity="0.8" fill-opacity="0.8"
            transform="translate(157.2031013872911 1126.4941293675674) rotate(0 -9.604163559371955 -7.527082897616538)">
            <path
                d="M-1.7 -0.43 C-3.46 -4.34, -11.67 -7.52, -20.88 -14.09 M0.06 -0.39 C-5.84 -3.88, -11.61 -8.67, -19.2 -16.01"
                stroke="#000000" stroke-width="2" fill="none"></path>
        </g>
    </g>
    <mask></mask>
    <g stroke-linecap="round">
        <g stroke-opacity="0.8" fill-opacity="0.8"
            transform="translate(95.3014452095631 1111.8213973558616) rotate(0 24.4262103679539 23.9995601334291)">
            <path
                d="M2.68 -0.98 C-10.93 14.03, -16.46 29.45, -21.2 50.78 M0.22 1.65 C-4.65 12.5, -10.1 20.77, -22.82 49.01 M-20.28 47.93 C9.35 39.86, 36.1 36.61, 68.59 26.01 M-21.42 46 C-2.17 41.39, 19.29 38.33, 68.6 25.21"
                stroke="#000000" stroke-width="2" fill="none"></path>
        </g>
    </g>
    <mask></mask>
    <g stroke-opacity="0.8" fill-opacity="0.8"
        transform="translate(122.91000454650566 1079.6644622259103) rotate(0 0.000052132896598777734 0.00005213289580296987)"
        stroke="none">
        <path fill="#000000"
            d="M 1.57,-1.57 Q 1.57,-1.57 1.77,-1.27 1.98,-0.98 2.09,-0.64 2.20,-0.29 2.19,0.05 2.18,0.41 2.05,0.75 1.93,1.09 1.70,1.37 1.48,1.65 1.18,1.84 0.87,2.04 0.52,2.12 0.18,2.21 -0.17,2.18 -0.53,2.15 -0.86,2.01 -1.19,1.87 -1.46,1.63 -1.73,1.39 -1.90,1.07 -2.08,0.76 -2.15,0.41 -2.21,0.05 -2.17,-0.29 -2.12,-0.65 -1.96,-0.97 -1.80,-1.29 -1.54,-1.54 -1.29,-1.80 -0.97,-1.96 -0.65,-2.12 -0.29,-2.17 0.06,-2.21 0.41,-2.15 0.76,-2.08 1.07,-1.90 1.39,-1.73 1.63,-1.46 1.87,-1.19 2.01,-0.86 2.15,-0.53 2.18,-0.17 2.21,0.18 2.12,0.52 2.03,0.87 1.84,1.18 1.65,1.48 1.37,1.70 1.09,1.93 0.75,2.05 0.41,2.18 0.05,2.19 -0.30,2.20 -0.64,2.09 -0.98,1.98 -1.27,1.77 -1.57,1.56 -1.57,1.57 -1.57,1.57 -1.73,1.35 -1.90,1.14 -2.01,0.90 -2.12,0.66 -2.16,0.39 -2.21,0.13 -2.20,-0.13 -2.18,-0.40 -2.10,-0.65 -2.02,-0.91 -1.88,-1.14 -1.74,-1.36 -1.55,-1.55 -1.36,-1.74 -1.14,-1.88 -0.91,-2.02 -0.65,-2.10 -0.40,-2.18 -0.13,-2.20 0.13,-2.21 0.39,-2.16 0.66,-2.12 0.90,-2.01 1.14,-1.90 1.35,-1.73 1.57,-1.57 1.57,-1.57 L 1.57,-1.57 Z"></path>
    </g>
    <g stroke-opacity="0.8" fill-opacity="0.8"
        transform="translate(136.87807083432926 1076.1720395360337) rotate(0 0 -0.7520343036264876)"
        stroke="none">
        <path d="" stroke="#ffffff" stroke-width="0.5" fill="none"></path>
        <path fill="#000000"
            d="M 2.12,-0.66 Q 2.12,-0.66 2.15,-0.13 2.18,0.40 1.96,0.88 1.74,1.36 1.32,1.69 0.91,2.02 0.38,2.12 -0.13,2.21 -0.64,2.05 -1.14,1.90 -1.52,1.52 -1.90,1.14 -2.05,0.64 -2.21,0.13 -2.12,-0.38 -2.02,-0.91 -1.69,-1.32 -1.36,-1.74 -0.88,-1.96 -0.39,-2.18 0.13,-2.15 0.66,-2.11 1.11,-1.84 1.57,-1.56 1.84,-1.11 L 2.12,-0.66 Z"></path>
    </g>
    <g stroke-linecap="round">
        <g stroke-opacity="0.8" fill-opacity="0.8"
            transform="translate(141.32133651221375 1089.162356845959) rotate(25.810438890233822 -6.314320980234697 3.5079561001306274)">
            <path
                d="M0.27 0.02 C-0.4 0.94, -1.83 3.92, -3.97 5.05 C-6.12 6.18, -11.16 6.4, -12.6 6.8 M-0.26 -0.44 C-0.97 0.58, -2.1 4.29, -4.21 5.58 C-6.32 6.87, -11.56 7.13, -12.93 7.29"
                stroke="#000000" stroke-width="1" fill="none"></path>
        </g>
    </g>
    <mask></mask>
    <g stroke-linecap="round">
        <g
            transform="translate(160.95353241690464 1107.4616042458883) rotate(0 24.604739660397172 25.39348083572463)"
            fill-rule="evenodd">
            <path
                d="M0 0 C0 0, 0 0, 0 0 M0 0 C0 0, 0 0, 0 0 M-2.23 8.66 C4.41 2.52, 9.72 -3.93, 14.17 -10.21 M-2.23 8.66 C1.17 4.89, 5.48 -0.27, 14.17 -10.21 M-3.8 16.57 C2.07 7.15, 12.97 -2.6, 19.81 -10.6 M-3.8 16.57 C1.95 10.16, 9.1 2.78, 19.81 -10.6 M-6.03 25.23 C1.05 20.27, 7.95 12.15, 21.52 -6.47 M-6.03 25.23 C3 15.36, 11.89 3.3, 21.52 -6.47 M-8.26 33.89 C0.4 23.74, 10.19 11.61, 22.57 -1.58 M-8.26 33.89 C0.62 25.14, 8.25 16.25, 22.57 -1.58 M-10.49 42.55 C-3.31 36.24, 5.8 24.27, 23.62 3.31 M-10.49 42.55 C-0.88 31.97, 8.13 21.63, 23.62 3.31 M-12.07 50.46 C2.15 32.69, 17.89 17.18, 41.08 -10.67 M-12.07 50.46 C6.93 27.74, 27.61 5.45, 41.08 -10.67 M-12.33 56.86 C-2.17 43.38, 12.38 31.03, 42.13 -5.78 M-12.33 56.86 C2.49 39.18, 18.87 21.46, 42.13 -5.78 M-13.24 64.01 C0.58 46.65, 13.06 33.74, 43.83 -1.65 M-13.24 64.01 C-1.68 50.72, 10.62 37.27, 43.83 -1.65 M-11.54 68.15 C2.14 51.81, 19.33 34.04, 59.97 -14.12 M-11.54 68.15 C6.06 47.95, 24.69 27.26, 59.97 -14.12 M-1.3 62.47 C18.26 44.18, 35.15 21.79, 63.65 -12.25 M-1.3 62.47 C16.79 42.27, 35.48 22.32, 63.65 -12.25 M8.93 56.79 C26.3 36.2, 45.02 14.94, 62.07 -4.34 M8.93 56.79 C20.54 44.07, 32.07 29.26, 62.07 -4.34 M11.95 59.42 C29.1 37.12, 49.39 15.73, 59.84 4.32 M11.95 59.42 C26.55 43.14, 40.25 26.58, 59.84 4.32 M14.31 62.79 C31.16 42.57, 47.35 24, 58.27 12.23 M14.31 62.79 C29.47 46.89, 43.87 30.58, 58.27 12.23 M33.08 47.31 C38.99 39.68, 43.48 34.56, 56.04 20.89 M33.08 47.31 C40.69 38.75, 48 30.21, 56.04 20.89 M34.79 51.44 C38.76 46.35, 45.98 40.64, 53.16 30.31 M34.79 51.44 C40.59 46.68, 43.84 40.26, 53.16 30.31 M36.49 55.57 C38.97 50.63, 44.53 45.62, 50.27 39.72 M36.49 55.57 C39.67 51.66, 43.05 48.65, 50.27 39.72 M38.2 59.71 C40.86 54.36, 46.52 50.5, 47.38 49.14 M38.2 59.71 C40.46 58.02, 42.44 55.78, 47.38 49.14"
                stroke="#868e96" stroke-width="0.5" fill="none"></path>
            <path
                d="M0.83 -0.74 C-1.63 10.12, -15.33 55.56, -14.19 65.22 C-13.05 74.87, 2.44 57.15, 7.68 57.19 C12.92 57.23, 13.32 67.57, 17.25 65.47 C21.18 63.38, 27.17 45.44, 31.25 44.63 C35.33 43.82, 36.32 70.39, 41.75 60.6 C47.17 50.81, 63.29 -3.96, 63.79 -14.12 C64.3 -24.27, 48.95 -0.43, 44.78 -0.34 C40.62 -0.26, 42.27 -14.25, 38.8 -13.63 C35.33 -13, 27.36 3.24, 23.98 3.42 C20.59 3.6, 22.51 -11.8, 18.49 -12.54 C14.48 -13.28, 2.96 -3.17, -0.1 -1.01 M-0.19 1.48 C-2.85 12.5, -16.29 57.53, -15.1 66.51 C-13.9 75.49, 1.53 55.9, 6.98 55.37 C12.43 54.83, 13.81 65.13, 17.61 63.31 C21.41 61.48, 25.6 44.99, 29.78 44.42 C33.97 43.85, 36.9 69.79, 42.7 59.88 C48.51 49.97, 63.88 -4.99, 64.6 -15.05 C65.33 -25.12, 51.64 -0.55, 47.06 -0.51 C42.48 -0.48, 40.89 -15.37, 37.12 -14.84 C33.34 -14.32, 27.42 2.12, 24.42 2.63 C21.41 3.13, 23.42 -11.66, 19.09 -11.81 C14.76 -11.97, 1.54 -0.25, -1.56 1.7"
                stroke="#000000" stroke-width="1" fill="none"></path>
        </g>
    </g>
    <mask></mask>
    <g stroke-linecap="round">
        <g
            transform="translate(153.57793915297952 1137.9166303274117) rotate(0 4.656096667749807 -4.835177308817379)">
            <path
                d="M0.02 -0.14 C1.54 -1.66, 7.79 -7.82, 9.35 -9.38 M-0.4 -0.51 C1.06 -2.11, 7.5 -8.27, 9.09 -9.85"
                stroke="#000000" stroke-width="1" fill="none"></path>
        </g>
    </g>
    <mask></mask>
    <g stroke-linecap="round">
        <g
            transform="translate(211.24190557665133 1122.1575339134881) rotate(0 2.5071289749430434 2.8652902570770493)">
            <path
                d="M0.04 0.29 C0.88 1.31, 4.25 5.1, 5.08 5.95 M-0.37 0.14 C0.43 1.06, 3.98 4.53, 4.84 5.44"
                stroke="#000000" stroke-width="1" fill="none"></path>
        </g>
    </g>
    <mask></mask>
    <g stroke-linecap="round">
        <g
            transform="translate(209.09293788384457 1128.962598274046) rotate(0 4.835177308817947 -0.8954032053366063)">
            <path
                d="M0.07 0.22 C1.67 -0.18, 8.12 -1.82, 9.67 -2.13 M-0.33 0.03 C1.23 -0.37, 7.65 -1.48, 9.4 -1.85"
                stroke="#000000" stroke-width="1" fill="none"></path>
        </g>
    </g>
    <mask></mask>
    <g stroke-linecap="round">
        <g
            transform="translate(185.2347294685169 1112.8256470477659) rotate(0 -8.21837831130506 25.543608264869476)">
            <path
                d="M0.01 -1.14 C-2.91 7.35, -14.62 42.86, -17.3 51.7 M-1.44 0.87 C-4.01 8.95, -12.5 41.72, -15.05 49.89"
                stroke="#000000" stroke-width="1" fill="none"></path>
        </g>
    </g>
    <mask></mask>
    <g stroke-linecap="round">
        <g
            transform="translate(204.78114274945983 1107.4948070620542) rotate(0 -6.441431649402148 22.878188272013517)">
            <path
                d="M-0.4 0.28 C-2.52 8.05, -10.6 38.51, -12.73 46.11 M0.4 -0.05 C-1.78 7.61, -10.74 37.56, -13.09 45.33"
                stroke="#000000" stroke-width="1" fill="none"></path>
        </g>
    </g>
    <mask></mask>
    <g stroke-linecap="round">
        <g
            transform="translate(68.46202561748578 1092.3908834374536) rotate(0 47.24995177730489 -31.783240943726582)"
            fill-rule="evenodd">
            <path
                d="M-2.01 0.79 C14.56 -9.47, 86.77 -51.1, 98.49 -59.21 C110.21 -67.31, 74.76 -48.79, 68.28 -47.84 C61.8 -46.88, 62.92 -52.13, 59.61 -53.49 C56.29 -54.84, 51.95 -54.14, 48.39 -55.96 C44.82 -57.78, 41.69 -63.36, 38.21 -64.42 C34.73 -65.47, 32.18 -64.02, 27.5 -62.3 C22.82 -60.57, 14.26 -56.68, 10.11 -54.08 C5.95 -51.49, 5.47 -49.77, 2.58 -46.73 C-0.32 -43.69, -6.23 -39.7, -7.27 -35.85 C-8.32 -32.01, -4.77 -29.58, -3.71 -23.68 C-2.64 -17.78, -1.32 -4.21, -0.89 -0.47"
                stroke="none" stroke-width="0" fill="#fab005" fill-rule="evenodd"></path>
            <path
                d="M0.32 0.78 C17.01 -9.02, 88.16 -50.07, 99.26 -58.14 C110.36 -66.2, 73.85 -48.3, 66.94 -47.61 C60.04 -46.93, 60.58 -52.29, 57.84 -54.01 C55.1 -55.74, 53.46 -56.18, 50.49 -57.94 C47.52 -59.7, 44.04 -63.88, 40.01 -64.58 C35.99 -65.27, 31.24 -63.55, 26.32 -62.11 C21.41 -60.67, 14.61 -58.11, 10.51 -55.93 C6.41 -53.74, 4.21 -52.49, 1.73 -49.03 C-0.76 -45.56, -3.05 -39.52, -4.4 -35.14 C-5.76 -30.77, -7.02 -28.71, -6.42 -22.77 C-5.81 -16.83, -1.96 -3.4, -0.78 0.49 M-0.97 0.14 C16.19 -10.08, 90.43 -52.38, 101.62 -60.09 C112.81 -67.8, 73.48 -47.27, 66.17 -46.13 C58.86 -44.99, 60.57 -51.3, 57.76 -53.25 C54.95 -55.2, 52.03 -56.27, 49.3 -57.81 C46.57 -59.35, 45.08 -61.58, 41.37 -62.49 C37.67 -63.39, 32.36 -64.77, 27.04 -63.22 C21.73 -61.68, 13.39 -55.91, 9.47 -53.23 C5.56 -50.55, 6.29 -50.1, 3.55 -47.15 C0.82 -44.19, -5.24 -39.65, -6.93 -35.48 C-8.62 -31.32, -7.94 -28.1, -6.61 -22.14 C-5.28 -16.17, -0.25 -3.37, 1.06 0.32"
                stroke="#000000" stroke-width="1" fill="none"></path>
        </g>
    </g>
    <mask></mask>
    <g stroke-linecap="round">
        <g
            transform="translate(68.0943014494951 1098.6149245395495) rotate(0 12.687604931221358 -5.997547055644986)"
            fill-rule="evenodd">
            <path d="M0 0 L23.43 -13.89 L25.38 -11.62 L1.23 1.89 L0 0" stroke="none"
                stroke-width="0" fill="#fa5252" fill-rule="evenodd"></path>
            <path
                d="M0 0 C7.66 -4.54, 15.32 -9.08, 23.43 -13.89 M0 0 C5.77 -3.42, 11.54 -6.84, 23.43 -13.89 M23.43 -13.89 C24.01 -13.21, 24.59 -12.54, 25.38 -11.62 M23.43 -13.89 C23.91 -13.33, 24.38 -12.78, 25.38 -11.62 M25.38 -11.62 C20.12 -8.68, 14.86 -5.73, 1.23 1.89 M25.38 -11.62 C18.25 -7.63, 11.12 -3.64, 1.23 1.89 M1.23 1.89 C0.88 1.36, 0.54 0.82, 0 0 M1.23 1.89 C0.94 1.45, 0.65 1, 0 0 M0 0 C0 0, 0 0, 0 0 M0 0 C0 0, 0 0, 0 0"
                stroke="#000000" stroke-width="1" fill="none"></path>
        </g>
    </g>
    <mask></mask>
    <g stroke-linecap="round">
        <g
            transform="translate(91.96489039167136 1084.4515961211503) rotate(0 3.205192678165986 0.24057891608356385)"
            fill-rule="evenodd">
            <path d="M0 0 L6.41 -1.61 L1.79 2.09" stroke="none" stroke-width="0" fill="#fab005"
                fill-rule="evenodd"></path>
            <path
                d="M0 0 C1.56 -0.39, 3.12 -0.78, 6.41 -1.61 M0 0 C1.66 -0.42, 3.32 -0.83, 6.41 -1.61 M6.41 -1.61 C5.14 -0.59, 3.88 0.42, 1.79 2.09 M6.41 -1.61 C4.84 -0.35, 3.26 0.91, 1.79 2.09 M1.79 2.09 C1.36 1.59, 0.93 1.08, 0 0 M1.79 2.09 C1.14 1.33, 0.5 0.58, 0 0"
                stroke="#000000" stroke-width="1" fill="none"></path>
        </g>
    </g>
    <mask></mask>
    <g stroke-linecap="round">
        <g
            transform="translate(68.29969322529723 1088.916198723567) rotate(0 25.018094763567206 -25.931163915521665)">
            <path
                d="M0 0 C8.28 -5.3, 41.33 -24.59, 49.67 -31.77 C58.01 -38.96, 51.5 -40.24, 50.04 -43.1 C48.58 -45.96, 43.95 -47.48, 40.91 -48.94 C37.86 -50.4, 35.12 -51.38, 31.77 -51.86 C28.43 -52.35, 25.08 -52.53, 20.82 -51.86 C16.56 -51.19, 8.64 -48.51, 6.21 -47.84 M0 0 C8.28 -5.3, 41.33 -24.59, 49.67 -31.77 C58.01 -38.96, 51.5 -40.24, 50.04 -43.1 C48.58 -45.96, 43.95 -47.48, 40.91 -48.94 C37.86 -50.4, 35.12 -51.38, 31.77 -51.86 C28.43 -52.35, 25.08 -52.53, 20.82 -51.86 C16.56 -51.19, 8.64 -48.51, 6.21 -47.84"
                stroke="#000000" stroke-width="1" fill="none"></path>
        </g>
    </g>
    <mask></mask>
    <g stroke-linecap="round">
        <g
            transform="translate(912.4739370544448 1118.6336362836182) rotate(0 -43.33936892435668 12.668453641314954)">
            <path
                d="M0 0 C-0.01 -3.73, -0.02 -7.46, -0.04 -14.99 M0 0 C-0.01 -3.15, -0.02 -6.31, -0.04 -14.99 M-0.04 -14.99 C-10.92 -18.87, -21.8 -22.75, -44.03 -30.68 M-0.04 -14.99 C-9.75 -18.45, -19.45 -21.91, -44.03 -30.68 M-44.03 -30.68 C-59.9 -24.88, -75.76 -19.07, -86.49 -15.15 M-44.03 -30.68 C-58.99 -25.21, -73.94 -19.74, -86.49 -15.15 M-86.49 -15.15 C-86.56 -1.18, -86.64 12.78, -86.76 36.61 M-86.49 -15.15 C-86.57 -0.81, -86.64 13.54, -86.76 36.61 M-86.76 36.61 C-72.01 43.24, -57.26 49.87, -43.59 56.02 M-86.76 36.61 C-75.63 41.62, -64.5 46.62, -43.59 56.02 M-43.59 56.02 C-27.24 48.82, -10.89 41.61, 0.08 36.77 M-43.59 56.02 C-31.25 50.58, -18.92 45.15, 0.08 36.77 M0.08 36.77 C0.07 31.21, 0.05 25.64, 0.01 14.34 M0.08 36.77 C0.06 30.08, 0.04 23.38, 0.01 14.34"
                stroke="#000" stroke-width="4" fill="none"></path>
        </g>
    </g>
    <mask></mask>
    <g stroke-linecap="round">
        <g
            transform="translate(841.8853844507503 1111.2308162772483) rotate(0 13.689775620250657 20.425786362288363)">
            <path
                d="M0 0 C10.18 3.68, 20.37 7.36, 27.38 9.89 M0 0 C9.45 3.42, 18.91 6.83, 27.38 9.89 M27.38 9.89 C27.31 21.7, 27.24 33.51, 27.19 40.85 M27.38 9.89 C27.31 21.6, 27.24 33.32, 27.19 40.85"
                stroke="#3d71b7" stroke-width="4" fill="none"></path>
        </g>
    </g>
    <mask></mask>
    <g mask="url(#mask-2Rofn0JL6Q73hKmyoW10-)" stroke-linecap="round">
        <g
            transform="translate(214.31521326922302 1075.3748104080632) rotate(0 290.6092449590233 0)">
            <path
                d="M-0.63 2.47 C96.25 1.75, 483.91 -1.45, 580.69 -2.19 M4.22 1.35 C100.73 0.71, 482.61 0.46, 578.17 0.25"
                stroke="#f08c00" stroke-width="2" fill="none"></path>
        </g>
        <g
            transform="translate(214.31521326922302 1075.3748104080632) rotate(0 290.6092449590233 0)">
            <path
                d="M556.46 8.46 C559.61 5.65, 566.33 2.53, 576.35 0.74 M554.57 8.52 C563.81 5.42, 571.37 1.55, 578.28 0.76"
                stroke="#f08c00" stroke-width="2" fill="none"></path>
        </g>
        <g
            transform="translate(214.31521326922302 1075.3748104080632) rotate(0 290.6092449590233 0)">
            <path
                d="M556.43 -8.64 C559.73 -6.68, 566.45 -5.03, 576.35 0.74 M554.55 -8.59 C563.7 -5.49, 571.27 -3.18, 578.28 0.76"
                stroke="#f08c00" stroke-width="2" fill="none"></path>
        </g>
    </g>
    <mask id="mask-2Rofn0JL6Q73hKmyoW10-">
        <rect x="0" y="0" fill="#fff" width="895.5337031872696" height="1175.3748104080632"></rect>
        <rect x="345.3185164557872" y="1030.3748104080632" fill="#000" width="319.2118835449219"
            height="90" opacity="1"></rect>
    </mask>
    <g
        transform="translate(345.3185164557872 1030.3748104080632) rotate(0 159.02664034552618 45.14082055501649)">
        <text x="159.60594177246094" y="31.536" font-family="Virgil, Segoe UI Emoji"
            font-size="36px" fill="#f08c00" text-anchor="middle" style="white-space: pre;"
            direction="ltr" dominant-baseline="alphabetic">POST:</text>
        <text x="159.60594177246094" y="76.536" font-family="Virgil, Segoe UI Emoji"
            font-size="36px" fill="#f08c00" text-anchor="middle" style="white-space: pre;"
            direction="ltr" dominant-baseline="alphabetic">/generate-zpl/{id}</text>
    </g>
    <g mask="url(#mask-oTN7_AChjx_-mrM6f7fmG)" stroke-linecap="round">
        <g transform="translate(819.7839540604546 1189.9281763057272) rotate(0 -303.994216303121 0)">
            <path
                d="M-2.18 -2.05 C-103.54 -2.25, -504.71 0.57, -605.45 1.29 M1.83 3.01 C-99.91 3.19, -504.72 -2.18, -606.31 -3.02"
                stroke="#f08c00" stroke-width="2" fill="none"></path>
        </g>
        <g transform="translate(819.7839540604546 1189.9281763057272) rotate(0 -303.994216303121 0)">
            <path
                d="M-584.19 -9.5 C-591.07 -7.26, -599.68 -5.71, -605.52 -2.79 M-583.16 -10.34 C-590.17 -7.48, -600.15 -4.97, -606.57 -2.58"
                stroke="#f08c00" stroke-width="2" fill="none"></path>
        </g>
        <g transform="translate(819.7839540604546 1189.9281763057272) rotate(0 -303.994216303121 0)">
            <path
                d="M-584.38 7.6 C-591.33 3.07, -599.87 -2.15, -605.52 -2.79 M-583.34 6.76 C-590.26 3.56, -600.18 0.01, -606.57 -2.58"
                stroke="#f08c00" stroke-width="2" fill="none"></path>
        </g>
    </g>
    <mask id="mask-oTN7_AChjx_-mrM6f7fmG">
        <rect x="0" y="0" fill="#fff" width="1527.7723866666965" height="1289.9281763057272"></rect>
        <rect x="442.4937782846755" y="1167.4281763057272" fill="#000" width="146.5919189453125"
            height="45" opacity="1"></rect>
    </mask>
    <g
        transform="translate(442.4937782846755 1167.4281763057272) rotate(0 75.04826617807339 22.499086585944724)">
        <text x="73.29595947265625" y="31.536" font-family="Virgil, Segoe UI Emoji" font-size="36px"
            fill="#f08c00" text-anchor="middle" style="white-space: pre;" direction="ltr"
            dominant-baseline="alphabetic">ZPL file</text>
    </g>
</svg>
